<svg width="32" height="32" viewBox="0 0 32 32" fill="none" xmlns="http://www.w3.org/2000/svg">
  <rect width="32" height="32" rx="8" fill="url(#paint0_linear)"/>
  <path d="M16 8L7 16H9V24H14V19H18V24H23V16H25L16 8Z" fill="white"/>
  <path d="M16 16.5C16 16.5 15.5 14.5 13.5 14.5C11.5 14.5 11.5 17 13.5 18C15 18.7 16 20 16 20C16 20 17 18.7 18.5 18C20.5 17 20.5 14.5 18.5 14.5C16.5 14.5 16 16.5 16 16.5Z" fill="#3B82F6"/>
  <defs>
    <linearGradient id="paint0_linear" x1="0" y1="0" x2="32" y2="32" gradientUnits="userSpaceOnUse">
      <stop stop-color="#2563EB"/>
      <stop offset="1" stop-color="#0D9488"/>
    </linearGradient>
  </defs>
</svg>
